<svg version="1.2" xmlns="http://www.w3.org/2000/svg" viewBox="0 0 512 512" width="512" height="512">
	<title>mg-icon-alt-ff524362021053ab36a00c8508845fc0</title>
	<style>
		.s0 { fill: #ffffff } 
	</style>
	<path id="logo-line" class="s0" d="m257.8 264.8c-78.5 65.8-142.7 120.1-142.8 120.7 0 0.5 2.2 3.5 4.8 6.5l4.9 5.5c10.3-8.5 74.7-62.5 149.7-125.5 75.1-63 136.5-115 136.5-115.5 0.1-0.6-1.9-3.4-4.4-6.3-2.5-2.8-4.8-5.2-5.2-5.2-0.5 0-65 53.9-143.5 119.8z"/>
	<path id="logo-g" class="s0" d="m335.5 270.5c-3.3 0.7-9.1 2.5-13 4-3.9 1.4-9.9 4.3-13.5 6.4-3.6 2.1-9.4 6.3-13 9.3-3.6 3-9.1 8.8-12.2 12.9-3.1 4.1-7.7 11.7-10.2 16.9-2.4 5.2-5.3 12.4-6.2 16-1.4 5-1.8 10.2-1.8 22.5 0 12.3 0.4 17.5 1.8 22.5 0.9 3.6 3.8 10.8 6.2 16 2.5 5.2 7.1 12.8 10.2 16.9 3.1 4.1 8.6 9.9 12.2 12.9 3.6 3 9.4 7.2 13 9.3 3.6 2.1 10.1 5.2 14.5 6.8 4.4 1.6 11.1 3.4 15 4.1 4.4 0.8 12 1.1 20.5 0.8 11.7-0.4 14.8-0.9 23-3.7 5.2-1.7 13.1-5.3 17.5-8 4.4-2.8 10.4-7.1 13.4-9.8 3-2.6 7.5-7.5 10-10.8 2.5-3.3 6.4-9.6 8.8-14 2.3-4.4 5.4-12.1 6.8-17 2.1-7 2.8-12 3.2-22.5 0.4-7.4 0.3-14.7 0-16.2l-0.7-2.8c-78.3 0-101 0.1-101 0.3 0 0.1 3.6 7.7 8 17l8 16.7h47c-1.6 5-3.2 8.9-4.8 11.9-1.5 3-5.6 8.5-9.2 12.4-4.9 5.2-8.4 7.8-14 10.6-6.7 3.3-8.3 3.6-17.5 4-7.4 0.2-11.6-0.1-16-1.4-3.3-0.9-8.5-3.1-11.5-4.8-3-1.7-8.2-5.9-11.6-9.2-3.9-3.9-7.3-8.6-9.7-13.5-2.1-4.1-4.4-10-5.2-13-0.8-3.1-1.5-9.9-1.5-15.5 0-5.6 0.7-12.4 1.5-15.5 0.8-3 3.1-8.9 5.2-13 2.4-4.9 5.8-9.6 9.7-13.5 3.4-3.3 8.6-7.5 11.6-9.2 3-1.7 8.2-3.9 11.5-4.8 4.5-1.3 8.4-1.6 16-1.3 7.1 0.4 11.6 1.1 15.5 2.7 3 1.2 8.3 4.3 11.8 6.9 3.4 2.6 7.9 7 10 9.7 2 2.8 4.4 6.1 5.2 7.4l1.5 2.4c21.6-13.8 28.3-18.1 28.9-18.5 0.7-0.4-0.4-2.8-2.9-6.4-2.2-3.1-6.9-8.4-10.5-11.8-3.6-3.4-8.5-7.5-11-9.2-2.5-1.7-7.9-4.8-12-6.9-4.1-2.1-11.8-4.8-17-6.1-7.8-2-11.9-2.4-22.5-2.3-7.1 0-15.7 0.7-19 1.4z"/>
	<path id="logo-m" fill-rule="evenodd" class="s0" d="m71 64l28.5 0.1 53.3 80.4 53.2-80.5h28v23l-40 60.2c-22.1 33.2-40.5 60.4-41 60.5-0.6 0.2-10.8-14.4-44.5-65l-0.5 96.3h-37zm161.5 59.4c0.6 0.2 1.1 20.5 1.5 115.6h-36v-92.5l16.7-11.6c9.3-6.4 17.2-11.6 17.8-11.5z"/>
</svg>